<svg width="150" height="50" viewBox="0 0 150 50" fill="none" xmlns="http://www.w3.org/2000/svg">
<rect x="0.624479" y="0.624479" width="148.626" height="48.7094" rx="6.86927" fill="black"/>
<rect x="0.624479" y="0.624479" width="148.626" height="48.7094" rx="6.86927" stroke="#A6A6A6" stroke-width="1.24896"/>
<path d="M30.8544 25.9318C30.8696 24.7829 31.1822 23.6564 31.7631 22.6571C32.344 21.6578 33.1744 20.8182 34.177 20.2164C33.5401 19.3284 32.6999 18.5975 31.723 18.0819C30.7462 17.5664 29.6597 17.2803 28.5498 17.2464C26.1821 17.0037 23.8868 18.6295 22.6803 18.6295C21.4505 18.6295 19.5929 17.2705 17.5926 17.3106C16.2987 17.3514 15.0377 17.7188 13.9325 18.3768C12.8273 19.0349 11.9155 19.9612 11.286 21.0656C8.5593 25.6747 10.5932 32.4486 13.2053 36.1744C14.5121 37.9987 16.0395 40.0366 18.038 39.9643C19.9937 39.8851 20.7241 38.7468 23.0847 38.7468C25.4235 38.7468 26.1087 39.9643 28.1478 39.9184C30.2463 39.8851 31.5685 38.0859 32.8295 36.2443C33.7685 34.9443 34.491 33.5076 34.9704 31.9874C33.7512 31.4839 32.7108 30.6413 31.9788 29.5644C31.2469 28.4876 30.8559 27.2242 30.8544 25.9318Z" fill="white"/>
<path d="M27.0042 14.7961C28.1484 13.4551 28.7121 11.7315 28.5756 9.99121C26.8275 10.1705 25.2128 10.9861 24.0531 12.2757C23.4861 12.9057 23.0519 13.6386 22.7752 14.4325C22.4985 15.2264 22.3848 16.0658 22.4406 16.9027C23.3149 16.9115 24.1799 16.7265 24.9704 16.3616C25.7609 15.9967 26.4563 15.4614 27.0042 14.7961Z" fill="white"/>
<path d="M45.9508 10.5081H48.536C50.7698 10.5081 51.8566 11.8363 51.8566 14.2458C51.8566 16.6553 50.7588 18 48.536 18H45.9508V10.5081ZM47.1967 11.5564V16.9517H48.3987C49.8807 16.9517 50.5777 16.057 50.5777 14.2623C50.5777 12.4565 49.8752 11.5564 48.3987 11.5564H47.1967ZM55.7974 12.0998C57.3122 12.0998 58.3715 13.0822 58.3715 14.7123V15.4643C58.3715 17.1493 57.3122 18.0988 55.7974 18.0988C54.2606 18.0988 53.2122 17.1602 53.2122 15.4698V14.7178C53.2122 13.1316 54.277 12.0998 55.7974 12.0998ZM55.8028 13.0822C54.9357 13.0822 54.4417 13.8067 54.4417 14.7782V15.4259C54.4417 16.3973 54.9027 17.1163 55.8028 17.1163C56.692 17.1163 57.1476 16.4028 57.1476 15.4259V14.7782C57.1476 13.8067 56.67 13.0822 55.8028 13.0822ZM67.3179 12.1986L65.7921 18H64.5517L63.3387 13.7189H63.3057L62.1147 18H60.8688L59.2771 12.1986H60.5889L61.522 16.6224H61.5768L62.7459 12.1986H63.893L65.095 16.6224H65.1499L66.0994 12.1986H67.3179ZM68.5254 18V12.1986H69.7219V13.2414H69.7823C69.9305 12.7858 70.3531 12.1107 71.5276 12.1107C72.6967 12.1107 73.4816 12.7584 73.4816 14.0811V18H72.2631V14.4379C72.2631 13.5542 71.8021 13.1481 71.116 13.1481C70.2159 13.1481 69.7439 13.8397 69.7439 14.7782V18H68.5254ZM75.3258 18V10.1129H76.5442V18H75.3258ZM80.7265 12.0998C82.2414 12.0998 83.3007 13.0822 83.3007 14.7123V15.4643C83.3007 17.1493 82.2414 18.0988 80.7265 18.0988C79.1897 18.0988 78.1414 17.1602 78.1414 15.4698V14.7178C78.1414 13.1316 79.2062 12.0998 80.7265 12.0998ZM80.732 13.0822C79.8648 13.0822 79.3708 13.8067 79.3708 14.7782V15.4259C79.3708 16.3973 79.8319 17.1163 80.732 17.1163C81.6212 17.1163 82.0767 16.4028 82.0767 15.4259V14.7782C82.0767 13.8067 81.5992 13.0822 80.732 13.0822ZM86.4566 18.0878C85.3314 18.0878 84.5576 17.3963 84.5576 16.315C84.5576 15.2886 85.2711 14.5971 86.6103 14.5971H88.0757V14.0537C88.0757 13.3896 87.6531 13.0767 86.9835 13.0767C86.3249 13.0767 86.0285 13.3512 85.9352 13.7354H84.7771C84.8484 12.7639 85.5784 12.1107 87.0219 12.1107C88.2623 12.1107 89.2887 12.6267 89.2887 14.0702V18H88.1306V17.2481H88.0757C87.8178 17.6926 87.3128 18.0878 86.4566 18.0878ZM86.8353 17.1438C87.5269 17.1438 88.0757 16.6718 88.0757 16.0406V15.4149H86.8024C86.0944 15.4149 85.7815 15.7716 85.7815 16.2546C85.7815 16.8584 86.2865 17.1438 86.8353 17.1438ZM93.0429 12.1217C93.8607 12.1217 94.4864 12.484 94.7114 13.0712H94.7718V10.1129H95.9903V18H94.8047V17.0724H94.7444C94.5687 17.6597 93.8717 18.0768 93.0264 18.0768C91.6927 18.0768 90.8255 17.1273 90.8255 15.596V14.6026C90.8255 13.0712 91.7092 12.1217 93.0429 12.1217ZM93.3832 13.1206C92.5709 13.1206 92.0659 13.7244 92.0659 14.7782V15.4149C92.0659 16.4742 92.5764 17.0779 93.4106 17.0779C94.2339 17.0779 94.7718 16.4797 94.7718 15.4917V14.6135C94.7718 13.7189 94.1845 13.1206 93.3832 13.1206ZM102.681 12.0998C104.196 12.0998 105.255 13.0822 105.255 14.7123V15.4643C105.255 17.1493 104.196 18.0988 102.681 18.0988C101.144 18.0988 100.096 17.1602 100.096 15.4698V14.7178C100.096 13.1316 101.161 12.0998 102.681 12.0998ZM102.686 13.0822C101.819 13.0822 101.325 13.8067 101.325 14.7782V15.4259C101.325 16.3973 101.786 17.1163 102.686 17.1163C103.576 17.1163 104.031 16.4028 104.031 15.4259V14.7782C104.031 13.8067 103.554 13.0822 102.686 13.0822ZM106.825 18V12.1986H108.021V13.2414H108.082C108.23 12.7858 108.652 12.1107 109.827 12.1107C110.996 12.1107 111.781 12.7584 111.781 14.0811V18H110.562V14.4379C110.562 13.5542 110.101 13.1481 109.415 13.1481C108.515 13.1481 108.043 13.8397 108.043 14.7782V18H106.825ZM116.496 12.237V10.788H117.687V12.237H118.987V13.192H117.687V16.2711C117.687 16.9023 117.923 17.0779 118.576 17.0779C118.74 17.0779 118.96 17.0669 119.053 17.056V17.989C118.955 18.0055 118.548 18.0384 118.274 18.0384C116.863 18.0384 116.479 17.5335 116.479 16.3699V13.192H115.596V12.237H116.496ZM120.524 18V10.1129H121.737V13.2414H121.798C121.924 12.8298 122.396 12.1107 123.559 12.1107C124.69 12.1107 125.497 12.7639 125.497 14.0866V18H124.284V14.4434C124.284 13.5597 123.795 13.1481 123.104 13.1481C122.231 13.1481 121.737 13.8342 121.737 14.7782V18H120.524ZM129.586 18.0988C128.005 18.0988 127.023 17.1273 127.023 15.4917V14.7068C127.023 13.0603 128.099 12.0998 129.515 12.0998C130.969 12.0998 131.995 13.1097 131.995 14.7068V15.3874H128.23V15.6728C128.23 16.5071 128.724 17.1218 129.58 17.1218C130.217 17.1218 130.656 16.82 130.739 16.4577H131.93C131.858 17.1273 131.15 18.0988 129.586 18.0988ZM128.23 14.5916H130.804V14.5147C130.804 13.6421 130.294 13.0603 129.52 13.0603C128.746 13.0603 128.23 13.6421 128.23 14.5147V14.5916Z" fill="white"/>
<path d="M47.7182 39H45.1824L50.3417 24.0162H53.1299L58.2782 39H55.6437L54.3154 34.8506H49.0574L47.7182 39ZM51.7468 26.6068H51.648L49.6172 32.9406H53.7556L51.7468 26.6068ZM65.2764 39.1647C63.7725 39.1647 62.6309 38.4511 62.0162 37.3864H61.9284V42.853H59.4914V27.3971H61.8625V29.0986H61.9503C62.587 27.9899 63.7725 27.2434 65.3313 27.2434C67.9329 27.2434 69.788 29.2084 69.788 32.6771V33.709C69.788 37.1558 67.9548 39.1647 65.2764 39.1647ZM64.7166 37.1558C66.2644 37.1558 67.3182 35.9154 67.3182 33.5773V32.765C67.3182 30.5146 66.3302 29.2303 64.6727 29.2303C62.9712 29.2303 61.9064 30.6134 61.9064 32.754V33.5773C61.9064 35.7727 62.9822 37.1558 64.7166 37.1558ZM77.6644 39.1647C76.1606 39.1647 75.0189 38.4511 74.4042 37.3864H74.3164V42.853H71.8795V27.3971H74.2505V29.0986H74.3383C74.975 27.9899 76.1606 27.2434 77.7193 27.2434C80.3209 27.2434 82.176 29.2084 82.176 32.6771V33.709C82.176 37.1558 80.3429 39.1647 77.6644 39.1647ZM77.1046 37.1558C78.6524 37.1558 79.7062 35.9154 79.7062 33.5773V32.765C79.7062 30.5146 78.7182 29.2303 77.0607 29.2303C75.3592 29.2303 74.2944 30.6134 74.2944 32.754V33.5773C74.2944 35.7727 75.3702 37.1558 77.1046 37.1558ZM87.2261 34.8397H89.663C89.7728 36.135 90.9144 37.2437 93.033 37.2437C94.976 37.2437 96.1286 36.3325 96.1286 34.9165C96.1286 33.7749 95.3602 33.1601 93.7575 32.7759L91.2986 32.1612C89.3666 31.7112 87.6322 30.5586 87.6322 28.1216C87.6322 25.2566 90.135 23.6868 93.044 23.6868C95.9529 23.6868 98.3789 25.2566 98.4338 28.0558H96.0408C95.931 26.7824 94.954 25.7286 93.0111 25.7286C91.2986 25.7286 90.135 26.5409 90.135 27.935C90.135 28.912 90.8156 29.6145 92.2097 29.9329L94.6576 30.5366C96.9079 31.0855 98.6204 32.1502 98.6204 34.6969C98.6204 37.6388 96.2383 39.2964 92.8464 39.2964C88.6751 39.2964 87.281 36.8595 87.2261 34.8397ZM101.59 27.3971V24.576H103.983V27.3971H106.244V29.3511H103.983V35.5422C103.983 36.8046 104.455 37.1558 105.761 37.1558C105.97 37.1558 106.167 37.1558 106.31 37.1339V39C106.113 39.0329 105.652 39.0768 105.158 39.0768C102.336 39.0768 101.557 38.0669 101.557 35.7398V29.3511H99.9544V27.3971H101.59ZM112.825 27.1995C116.162 27.1995 117.974 29.5487 117.974 32.7101V33.6431C117.974 36.9143 116.173 39.1976 112.825 39.1976C109.477 39.1976 107.655 36.9143 107.655 33.6431V32.7101C107.655 29.5596 109.488 27.1995 112.825 27.1995ZM112.825 29.1535C111.014 29.1535 110.114 30.6354 110.114 32.743V33.6322C110.114 35.7068 111.003 37.2327 112.825 37.2327C114.648 37.2327 115.526 35.7178 115.526 33.6322V32.743C115.526 30.6244 114.637 29.1535 112.825 29.1535ZM120.032 39V27.3971H122.469V28.923H122.557C122.853 28.1985 123.721 27.2325 125.334 27.2325C125.652 27.2325 125.927 27.2544 126.157 27.2983V29.4499C125.949 29.395 125.521 29.362 125.115 29.362C123.161 29.362 122.502 30.5695 122.502 32.1283V39H120.032ZM132.069 39.1976C128.962 39.1976 126.986 37.1449 126.986 33.709V32.5344C126.986 29.2962 128.918 27.1995 131.97 27.1995C135.066 27.1995 136.932 29.373 136.932 32.6442V33.7529H129.39V34.0273C129.39 35.9813 130.444 37.2766 132.102 37.2766C133.342 37.2766 134.188 36.6619 134.484 35.6629H136.8C136.449 37.54 134.934 39.1976 132.069 39.1976ZM129.39 32.0514H134.55V32.0295C134.55 30.3829 133.529 29.0876 131.981 29.0876C130.411 29.0876 129.39 30.3829 129.39 32.0295V32.0514Z" fill="white"/>
</svg>
